Coordinates
version=1
nRows=38
nColumns=12
inDegrees=yes

Units are S.I. units (second, meters, Newtons, ...)
Angles are in degrees

endheader
time	SC_y	SC_z	SC_x	AC_y	AC_z	AC_x	GH_y	GH_z	GH_yy	EL_x	PS_y
       0.0              -37.87         -2.699          4.146          49.51         -8.234          3.975         -148.0          39.05          33.59          34.69          121.6
   0.01504              -37.86         -2.699          4.154          49.51         -8.235          3.972         -147.9          39.05          33.57           34.7          121.6
   0.03007              -37.86         -2.699          4.164           49.5         -8.237          3.968         -147.9          39.05          33.55          34.71          121.6
   0.04511              -37.86         -2.699          4.173           49.5         -8.239          3.964         -147.8          39.05          33.52          34.72          121.6
   0.06014              -37.85         -2.699          4.184           49.5          -8.24           3.96         -147.8          39.04          33.49          34.74          121.6
   0.07518              -37.85         -2.699          4.195           49.5         -8.243          3.955         -147.7          39.04          33.47          34.75          121.6
   0.09021              -37.84           -2.7          4.207           49.5         -8.245          3.951         -147.6          39.04          33.43          34.77          121.5
    0.1052              -37.84           -2.7           4.22           49.5         -8.247          3.946         -147.6          39.04           33.4          34.78          121.5
    0.1203              -37.83           -2.7          4.233          49.49         -8.249           3.94         -147.5          39.03          33.36           34.8          121.5
    0.1353              -37.82           -2.7          4.248          49.49         -8.252          3.934         -147.4          39.03          33.33          34.82          121.5
    0.1504              -37.82           -2.7          4.263          49.49         -8.255          3.928         -147.3          39.02          33.29          34.84          121.4
    0.1654              -37.81           -2.7           4.28          49.49         -8.258          3.921         -147.2          39.02          33.24          34.86          121.4
    0.1804               -37.8         -2.701          4.298          49.49         -8.261          3.914         -147.1          39.01          33.19          34.88          121.4
    0.1955               -37.8         -2.701          4.318          49.48         -8.265          3.906         -147.0          39.01          33.14          34.91          121.3
    0.2105              -37.79         -2.701          4.339          49.48         -8.269          3.897         -146.9           39.0          33.09          34.93          121.3
    0.2255              -37.78         -2.701          4.362          49.48         -8.273          3.888         -146.8           39.0          33.03          34.96          121.3
    0.2406              -37.77         -2.702          4.387          49.47         -8.278          3.878         -146.7          38.99          32.96          34.99          121.2
    0.2556              -37.75         -2.702          4.414          49.47         -8.283          3.867         -146.5          38.98          32.89          35.03          121.2
    0.2706              -37.74         -2.702          4.444          49.46         -8.288          3.855         -146.4          38.98          32.81          35.07          121.1
    0.2857              -37.73         -2.703          4.477          49.46         -8.294          3.842         -146.2          38.97          32.72          35.11          121.1
    0.3007              -37.71         -2.703          4.513          49.46         -8.301          3.828         -146.0          38.96          32.63          35.15          121.0
    0.3157               -37.7         -2.703          4.552          49.45         -8.308          3.812         -145.8          38.95          32.53           35.2          120.9
    0.3308              -37.68         -2.704          4.595          49.44         -8.316          3.794         -145.5          38.94          32.41          35.26          120.9
    0.3458              -37.66         -2.705          4.644          49.44         -8.325          3.775         -145.3          38.92          32.28          35.32          120.8
    0.3608              -37.63         -2.705          4.697          49.43         -8.334          3.753         -145.0          38.91          32.14          35.39          120.7
    0.3759              -37.61         -2.706          4.757          49.42         -8.345          3.729         -144.7          38.89          31.99          35.46          120.6
    0.3909              -37.58         -2.707          4.824          49.41         -8.358          3.702         -144.3          38.88          31.81          35.55          120.5
    0.4059              -37.55         -2.707          4.899           49.4         -8.371          3.672         -143.9          38.86          31.61          35.64          120.3
     0.421              -37.51         -2.708          4.984          49.39         -8.387          3.638         -143.4          38.83          31.39          35.75          120.2
     0.436              -37.47         -2.709          5.081          49.38         -8.404          3.599         -142.9          38.81          31.13          35.87          120.0
    0.4511              -37.43         -2.711          5.191          49.36         -8.425          3.554         -142.3          38.78          30.84          36.01          119.8
    0.4661              -37.37         -2.712          5.318          49.34         -8.448          3.503         -141.6          38.75          30.51          36.17          119.6
    0.4811              -37.31         -2.714          5.464          49.32         -8.475          3.445         -140.8          38.71          30.13          36.36          119.3
    0.4962              -37.24         -2.716          5.634           49.3         -8.506          3.376         -139.9          38.66          29.68          36.57          119.0
    0.5112              -37.15         -2.718          5.833          49.27         -8.542          3.296         -138.8          38.61          29.16          36.82          118.7
    0.5262              -37.05         -2.721          6.067          49.24         -8.585          3.202         -137.6          38.55          28.54          37.12          118.3
    0.5413              -36.94         -2.724          6.345           49.2         -8.636           3.09         -136.1          38.47          27.81          37.47          117.8
    0.5563               -36.8         -2.728          6.679          49.15         -8.697          2.956         -134.3          38.39          26.93          37.89          117.2
